<svg width="22" height="23" viewBox="0 0 22 23" fill="none" xmlns="http://www.w3.org/2000/svg">
<path d="M18.424 4.08223C17.4507 3.09934 16.2928 2.31843 15.0169 1.78438C13.7409 1.25033 12.372 0.973651 10.9887 0.970247C9.60551 0.966842 8.23524 1.23678 6.95666 1.76454C5.67807 2.29231 4.51636 3.0675 3.53827 4.04559C2.56018 5.02368 1.78498 6.18539 1.25722 7.46398C0.729452 8.74257 0.459518 10.1128 0.462922 11.4961C0.466327 12.8793 0.743003 14.2482 1.27706 15.5242C1.81111 16.8002 2.59201 17.958 3.57491 18.9313C4.54817 19.9142 5.70605 20.6951 6.98202 21.2291C8.258 21.7632 9.62692 22.0399 11.0101 22.0433C12.3934 22.0467 13.7636 21.7767 15.0422 21.249C16.3208 20.7212 17.4825 19.946 18.4606 18.9679C19.4387 17.9898 20.2139 16.8281 20.7417 15.5495C21.2694 14.271 21.5394 12.9007 21.536 11.5175C21.5325 10.1342 21.2559 8.76532 20.7218 7.48935C20.1878 6.21337 19.4069 5.05549 18.424 4.08223ZM1.99944 11.5068C1.9991 10.7102 2.10471 9.91717 2.3135 9.14848C2.65756 9.88911 3.15725 10.5289 3.49709 11.2888C3.93631 12.2657 5.11569 11.9947 5.63647 12.8507C6.09866 13.6105 5.60506 14.5715 5.951 15.3665C6.20225 15.9435 6.79475 16.0696 7.2035 16.4915C7.62116 16.9171 7.61225 17.5002 7.676 18.0552C7.74794 18.7073 7.86462 19.3537 8.02522 19.9897C8.02522 19.9944 8.02522 19.9996 8.02897 20.0043C4.52131 18.7724 1.99944 15.4288 1.99944 11.5068ZM10.9994 20.5068C10.4968 20.5066 9.99508 20.4646 9.49944 20.3811C9.50459 20.2541 9.50694 20.1355 9.51959 20.053C9.6335 19.3077 10.0066 18.5788 10.5101 18.021C11.0074 17.4707 11.689 17.0985 12.109 16.4741C12.5205 15.8647 12.6438 15.0444 12.4741 14.3324C12.2243 13.2805 10.7951 12.9294 10.0244 12.3589C9.58147 12.0308 9.18725 11.5236 8.60553 11.4824C8.33741 11.4636 8.11288 11.5213 7.84709 11.4529C7.60334 11.3896 7.41209 11.2583 7.15241 11.2925C6.66725 11.3563 6.36116 11.8747 5.83991 11.8044C5.34538 11.7383 4.83584 11.1594 4.72334 10.6883C4.57897 10.0827 5.05803 9.88629 5.57131 9.83239C5.78553 9.80989 6.026 9.78551 6.23178 9.86426C6.50272 9.96457 6.63069 10.2299 6.87397 10.3639C7.33006 10.6143 7.42241 10.2144 7.35256 9.80942C7.24803 9.20286 7.12616 8.95582 7.66709 8.53817C8.04209 8.25036 8.36272 8.04223 8.30272 7.5252C8.26709 7.22145 8.10069 7.08411 8.25584 6.78176C8.3735 6.55161 8.69647 6.34395 8.90694 6.20661C9.45022 5.85223 11.2343 5.87848 10.5054 4.88661C10.2912 4.59551 9.896 4.0752 9.521 4.00395C9.05225 3.91536 8.84413 4.43848 8.51741 4.66911C8.17991 4.9077 7.52272 5.17864 7.18475 4.80973C6.73006 4.31332 7.48616 4.15067 7.6535 3.80379C7.73084 3.64207 7.6535 3.41754 7.52319 3.20614C7.69225 3.13489 7.86413 3.06879 8.03881 3.00786C8.14829 3.08872 8.27816 3.13742 8.41381 3.14848C8.72741 3.16911 9.02319 2.99942 9.29694 3.21317C9.60069 3.44754 9.81959 3.74379 10.2227 3.81692C10.6127 3.8877 11.0257 3.66036 11.1223 3.26098C11.1808 3.01817 11.1223 2.76176 11.066 2.51098C12.8191 2.52107 14.5307 3.0461 15.9879 4.02082C15.8941 3.9852 15.7821 3.98942 15.6438 4.05364C15.3593 4.18582 14.9562 4.52239 14.9229 4.85614C14.8849 5.23489 15.4437 5.28832 15.709 5.28832C16.1074 5.28832 16.511 5.1102 16.3826 4.64989C16.3268 4.4502 16.2508 4.24254 16.1285 4.11692C16.4226 4.32099 16.7043 4.54232 16.9723 4.77973C16.968 4.78395 16.9638 4.7877 16.9596 4.79239C16.6896 5.07364 16.376 5.29629 16.1913 5.63848C16.061 5.87942 15.9143 5.99379 15.6504 6.05614C15.5051 6.09036 15.3391 6.10301 15.2173 6.20051C14.8779 6.4677 15.071 7.10989 15.3926 7.30254C15.799 7.54582 16.4018 7.43145 16.7083 7.08411C16.9479 6.81223 17.089 6.3402 17.5198 6.34067C17.7094 6.34027 17.8916 6.41453 18.0269 6.54739C18.2051 6.73208 18.1699 6.90457 18.2079 7.1352C18.2749 7.54489 18.6363 7.3227 18.8562 7.11598C19.0164 7.40118 19.161 7.69489 19.2893 7.99582C19.0474 8.34411 18.8552 8.72379 18.2735 8.31786C17.9252 8.07457 17.711 7.72161 17.2737 7.61192C16.8916 7.51817 16.5002 7.61567 16.1229 7.68082C15.694 7.75536 15.1854 7.78817 14.8601 8.11301C14.5455 8.42614 14.3791 8.8452 14.0444 9.15973C13.3971 9.76911 13.1238 10.4343 13.5429 11.2958C13.946 12.1241 14.7893 12.5736 15.6991 12.5146C16.593 12.455 17.5216 11.9366 17.4958 13.2355C17.4865 13.6954 17.5826 14.0136 17.7237 14.4407C17.8544 14.8344 17.8455 15.216 17.8755 15.6224C17.9041 16.0983 17.9785 16.5703 18.0977 17.0319C17.2575 18.1137 16.1812 18.9891 14.951 19.5914C13.7208 20.1936 12.3692 20.5067 10.9994 20.5068Z" fill="#A5A5A5"/>
</svg>
