<svg width="44" height="42" viewBox="0 0 44 42" fill="none" xmlns="http://www.w3.org/2000/svg">
<path d="M21.9 0C9.25178 0 0 4.8399 0 11.0879C0 23.584 13.6679 42 21.9 42C30.1321 42 43.8 23.584 43.8 11.0879C43.8 4.8399 34.5482 0 21.9 0Z" fill="#FF4000"/>
<path d="M32.4721 14.5622L33.5969 7.48821C33.6212 7.33424 33.4986 7.19658 33.3418 7.2018L13.3654 7.88552C13.246 7.88944 13.1463 7.97752 13.1279 8.09495L12.0031 15.169C11.9788 15.3229 12.1015 15.4606 12.2582 15.4554L18.7948 15.2316C18.9614 15.2257 19.0919 15.3725 19.0657 15.5363L17.2797 26.6637C17.2535 26.8255 17.3899 26.9677 17.5539 26.9494L20.2896 26.6447C20.4693 26.6258 20.6149 26.787 20.5769 26.9625L18.7351 35.4C18.6761 35.6708 19.0401 35.8195 19.189 35.5853L27.3384 22.7982C27.4467 22.6286 27.3181 22.4087 27.1161 22.4178L24.097 22.5568C23.9258 22.5646 23.7979 22.4022 23.8465 22.2384L25.9565 15.1559C25.9866 15.0535 26.0798 14.9824 26.1867 14.9785L32.2347 14.7716C32.354 14.7671 32.4537 14.6797 32.4721 14.5622Z" fill="white"/>
</svg>
